Coordinates
version=1
nRows=13
nColumns=40
inDegrees=yes

Units are S.I. units (second, meters, Newtons, ...)
Angles are in degrees.

endheader
time	pelvis_tilt	pelvis_list	pelvis_rotation	pelvis_tx	pelvis_ty	pelvis_tz	hip_flexion_r	hip_adduction_r	hip_rotation_r	knee_angle_r	knee_angle_r_beta	ankle_angle_r	subtalar_angle_r	mtp_angle_r	hip_flexion_l	hip_adduction_l	hip_rotation_l	knee_angle_l	knee_angle_l_beta	ankle_angle_l	subtalar_angle_l	mtp_angle_l	lumbar_extension	lumbar_bending	lumbar_rotation	arm_flex_r	arm_add_r	arm_rot_r	elbow_flex_r	pro_sup_r	wrist_flex_r	wrist_dev_r	arm_flex_l	arm_add_l	arm_rot_l	elbow_flex_l	pro_sup_l	wrist_flex_l	wrist_dev_l
      0.31000000	     -4.69659224	     -1.29804393	      9.54906803	     -0.60607319	      0.92379395	     -1.43507137	     32.34315056	     -0.92225324	    -21.38240798	    -27.19431149	     -0.47463027	     -2.50746050	    -11.88050922	      7.29309413	    -10.57487786	      9.36755537	     15.75106845	    -30.99470579	     -0.54095967	    -14.34625709	     -0.80785731	     -9.90354738	      1.36975317	      2.82133235	    -12.61855828	    -12.04451344	    -11.03244851	    -12.84824623	     18.08784104	     89.95437384	      0.00000000	      0.00000000	     11.49130879	     24.27506508	     21.73482214	     51.87181309	     89.95437384	      0.00000000	      0.00000000
      0.32000000	     -4.76596413	     -1.87444423	      9.20567824	     -0.59141208	      0.92442695	     -1.43379605	     31.86223656	      0.28236015	    -20.43987290	    -27.64728527	     -0.48253616	     -1.96884799	    -12.90406841	      6.75352347	     -8.82859145	     10.26244858	     15.24357726	    -34.20718731	     -0.59702805	    -16.35658846	      1.97078327	     -9.14405491	      1.73414540	      3.35320978	    -12.16744553	    -11.81464855	    -11.05306879	    -13.16675774	     17.60300544	     89.95437384	      0.00000000	      0.00000000	     10.38886009	     23.78898432	     21.46168355	     52.68640960	     89.95437384	      0.00000000	      0.00000000
      0.33000000	     -4.91406516	     -2.46718415	      8.91388293	     -0.57738860	      0.92494462	     -1.43265045	     31.43756529	      1.44666461	    -19.53625476	    -28.04013822	     -0.48939273	     -1.25627389	    -14.05649143	      6.49206546	     -6.74537226	     11.11190997	     14.54507217	    -37.81377968	     -0.65997496	    -16.44647147	      5.48975121	     -8.71665626	      2.10082625	      3.92721082	    -11.71111021	    -11.54641424	    -11.04877325	    -13.73611923	     17.34307726	     89.95437384	      0.00000000	      0.00000000	      9.36252665	     23.25407906	     21.09187242	     53.35909977	     89.95437384	      0.00000000	      0.00000000
      0.34000000	     -4.88840479	     -3.27535941	      8.57010547	     -0.56343298	      0.92584527	     -1.43122139	     30.61517268	      2.91622078	    -18.80552570	    -27.99971302	     -0.48868718	     -0.40929223	    -14.42039148	      6.32646269	     -4.78739074	     12.30309095	     14.36139673	    -41.34926340	     -0.72168079	    -15.23170750	      9.28780156	     -8.34172815	      2.30890314	      4.72431504	    -11.11979647	    -11.32019205	    -11.09010028	    -13.91163275	     17.23703971	     89.95437384	      0.00000000	      0.00000000	      8.49864233	     22.61936625	     20.62031897	     53.78108590	     89.95437384	      0.00000000	      0.00000000
      0.35000000	     -4.86158568	     -3.97708182	      8.23827749	     -0.54986785	      0.92700044	     -1.42986011	     29.73674667	      4.23974919	    -18.12630342	    -27.82489643	     -0.48563606	      0.37719456	    -14.83603716	      6.30980619	     -2.73649785	     13.39160825	     14.32629742	    -44.82957279	     -0.78242365	    -13.25736021	     12.84885709	     -7.87942221	      2.44616336	      5.40892840	    -10.54555536	    -10.94099012	    -11.11581034	    -14.14732891	     17.03818608	     89.95437384	      0.00000000	      0.00000000	      7.61791121	     22.10017988	     19.89497555	     54.02216767	     89.95437384	      0.00000000	      0.00000000
      0.36000000	     -5.02539948	     -4.49535741	      7.95469219	     -0.53698537	      0.92826335	     -1.42861468	     29.12881703	      5.28506498	    -17.41898771	    -27.78577016	     -0.48495317	      1.58744801	    -15.46739742	     10.88920071	     -0.29612187	     14.18469384	     14.03128255	    -48.38352644	     -0.84445184	     -8.35974449	     14.37745086	      4.59929147	      2.69228328	      5.84860655	     -9.91723282	    -10.42846502	    -11.02148689	    -14.82284425	     16.76434357	     89.95437384	      0.00000000	      0.00000000	      6.91406734	     21.51984450	     19.14960360	     53.97697753	     89.95437384	      0.00000000	      0.00000000
      0.37000000	     -4.72025857	     -4.60169178	      7.64074166	     -0.52400377	      0.93059754	     -1.42772440	     27.87506023	      5.84516556	    -16.95185644	    -27.72034702	     -0.48381133	      2.35699719	    -15.33902108	     10.59244387	      1.25575036	     14.50085245	     13.94912080	    -50.85069798	     -0.88751211	     -6.33961930	     16.29238880	      4.31303666	      2.32312928	      5.90083426	     -9.20651240	     -9.81982346	    -10.98234867	    -14.75715211	     16.54718976	     89.95437384	      0.00000000	      0.00000000	      6.28384578	     20.99993988	     18.32880111	     53.77540531	     89.95437384	      0.00000000	      0.00000000
      0.38000000	     -4.86364470	     -4.71211022	      7.47060515	     -0.51181222	      0.93251819	     -1.42731202	     26.97924037	      6.25339972	    -16.68839075	    -27.26795810	     -0.47591565	      2.85928446	    -15.23410829	     10.35322995	      3.52777834	     14.60475080	     13.36614329	    -53.24978947	     -0.92938415	     -4.29542352	     17.71382719	      4.25162159	      2.41461770	      5.92860583	     -8.60437282	     -9.27987990	    -10.94440814	    -14.93628485	     16.51467440	     89.95437384	      0.00000000	      0.00000000	      5.66855152	     20.34317372	     17.55615954	     53.37461626	     89.95437384	      0.00000000	      0.00000000
      0.39000000	     -5.61443162	     -4.84047557	      7.55972338	     -0.50035802	      0.93347356	     -1.42694277	     26.86872501	      6.40138913	    -16.81942098	    -26.99875676	     -0.47121720	      3.08271342	    -15.32119163	     10.15962433	      6.82067143	     14.62944473	     12.36125709	    -55.77749563	     -0.97350095	     -2.10313647	     18.22041065	      6.51569679	      3.18004056	      5.81779441	     -8.25704644	     -8.67486414	    -10.71821480	    -16.08259621	     16.37860841	     89.95437384	      0.00000000	      0.00000000	      5.04500546	     19.80094671	     16.58412478	     52.73179015	     89.95437384	      0.00000000	      0.00000000
      0.40000000	     -5.67798562	     -4.57668729	      7.59916046	     -0.48861592	      0.93587712	     -1.42711045	     25.77278548	      6.23241463	    -16.89308104	    -26.51614191	     -0.46279398	      3.67733060	    -14.90849825	      9.81955338	      9.05777132	     14.00520597	     11.34055987	    -57.62425273	     -1.00573294	      1.34722887	     18.40354595	     16.01564687	      3.07560300	      5.42852968	     -7.81088253	     -7.94453071	    -10.58398775	    -16.51987830	     16.34013584	     89.95437384	      0.00000000	      0.00000000	      4.52419624	     19.23131326	     15.69532513	     51.94382594	     89.95437384	      0.00000000	      0.00000000
      0.41000000	     -5.62340655	     -4.25399084	      7.72021624	     -0.47680348	      0.93850812	     -1.42743596	     24.47742086	      6.00526393	    -16.96310742	    -25.92545477	     -0.45248455	      4.23846067	    -14.48947306	      9.53706407	     10.99847740	     13.30863769	     10.44731630	    -58.80429995	     -1.02632865	      2.43775909	     18.52139345	     15.58967064	      2.86389241	      4.95597083	     -7.49420139	     -7.16742177	    -10.49703362	    -16.54581767	     16.38805451	     89.95437384	      0.00000000	      0.00000000	      3.90452769	     18.72581602	     14.78323342	     51.06131970	     89.95437384	      0.00000000	      0.00000000
      0.42000000	     -5.71941746	     -3.93296178	      7.94197507	     -0.46517856	      0.94080798	     -1.42787402	     23.39403780	      5.65766978	    -17.36176786	    -25.38606708	     -0.44307045	      4.68744792	    -13.95482404	      9.20556100	     13.15569167	     12.51933187	      9.46538640	    -59.79165766	     -1.04356129	      3.38896611	     18.52576316	     15.29127416	      2.83390263	      4.46190675	     -7.30957066	     -6.39291540	    -10.44575064	    -16.58274902	     16.48934235	     89.95437384	      0.00000000	      0.00000000	      3.20510417	     18.29507539	     13.73073489	     50.06612512	     89.95437384	      0.00000000	      0.00000000
      0.43000000	     -5.77101344	     -3.52340126	      8.05594490	     -0.45363756	      0.94324527	     -1.42818491	     22.22656068	      5.29534085	    -17.58607926	    -24.75486991	     -0.43205399	      5.09436136	    -13.43663239	      8.90300862	     15.07572468	     11.55556036	      8.58431858	    -60.30880463	     -1.05258721	      4.21176932	     18.51369910	     14.95647558	      2.71261733	      3.87385143	     -6.99980782	     -5.60684948	    -10.35319757	    -16.55447414	     16.70703867	     89.95437384	      0.00000000	      0.00000000	      2.59600230	     17.86229676	     12.74341024	     48.82126709	     89.95437384	      0.00000000	      0.00000000
